<?xml version="1.0" encoding="utf-8"?>
<!-- Svg Vector Icons : http://www.onlinewebfonts.com/icon -->
<!DOCTYPE svg PUBLIC "-//W3C//DTD SVG 1.1//EN" "http://www.w3.org/Graphics/SVG/1.1/DTD/svg11.dtd">
<svg version="1.1" xmlns="http://www.w3.org/2000/svg" xmlns:xlink="http://www.w3.org/1999/xlink" x="0px" y="0px" viewBox="0 0 256 256" enable-background="new 0 0 256 256" xml:space="preserve">
<metadata> Svg Vector Icons : http://www.onlinewebfonts.com/icon </metadata>
<g><g><g><path fill="#ffffff" d="M184.4,151.2c3.3,1.6,5.2,2.7,5.6,3.5c0.5,0.3,0.5,2,0.1,4.9c-0.4,3-1.2,5.9-2.5,8.9c-1.3,3.1-4.2,6.1-8.9,8.9c-4.7,2.8-8.5,4.3-11.5,4.5c-0.3,0-1.5,0.1-3.6,0.5c-2.1,0.3-3.9,0.4-5.3,0.1c-1.4-0.2-4.4-1.1-9-2.6c-4.6-1.5-10.4-3.7-17.4-6.7c-4.1-1.7-8-3.9-11.9-6.4c-3.9-2.6-7.4-5.3-10.4-8.1c-3-2.8-5.9-5.6-8.7-8.4c-2.7-2.8-5.2-5.6-7.2-8.3c-2.1-2.7-3.9-5.1-5.3-7c-1.4-2-2.6-3.8-3.5-5.5l-1.6-2.3c-7.7-11.4-11.3-21.7-11-30.9c0.3-8.9,4.1-16.9,11.2-24.1c2.5-2.5,5.2-3.6,8-3.3c1.4,0,3.3,0.1,5.9,0.5H98h1.2c0,0,0.4,0.1,1.1,0.2c0.7,0.1,1.1,0.4,1.3,0.8c0.1,0.4,0.5,0.9,1.1,1.6c0.6,0.7,0.9,1.5,1.1,2.5c0.6,1.6,1.6,4.1,2.9,7.7c1.3,3.6,2.5,6.7,3.6,9.5c1.1,2.7,1.7,4.3,1.9,4.8c0.8,1.9,0.8,3.6,0,5.2c-1.7,2.7-2.8,4.3-3.3,4.9c-1.9,2.2-3.3,3.8-4.5,4.9c-2.2,1.9-2.7,3.8-1.6,5.8c4.4,8.1,9.6,15.1,15.7,21.1c2.5,2.3,5.1,4.5,7.9,6.5c2.7,2,5,3.5,6.7,4.5c1.7,0.9,3.5,1.9,5.4,2.8l3.3,1.6c2.8,1.3,5,1,6.5-0.7c4.2-4.2,7.5-7.9,9.8-11c1.6-2,3.8-2.4,6.5-1.2C167.9,142,174.6,145.4,184.4,151.2z M130.1,220.7c26.5,0,49.2-9.4,68.1-28.1s28.3-41.3,28.3-67.7c0-26.4-9.4-48.9-28.3-67.7s-41.6-28.1-68.1-28.1c-26.5,0-49.2,9.4-68.1,28.1C43.1,76,33.7,98.6,33.7,124.9c0,20.8,6.2,39.5,18.5,56.2L40,216.5l37.2-11.7C93.3,215.4,110.9,220.7,130.1,220.7z M130.1,10c20.9,0,40.3,5.1,58.1,15.3C206,35.6,220,49.6,230.4,67.2C240.8,85,246,104.2,246,125c0,20.8-5.2,40-15.6,57.7c-10.4,17.7-24.5,31.7-42.3,41.9c-17.8,10.2-37.2,15.3-58.1,15.3c-20,0-38.6-4.8-56-14.3L10,246l20.8-61.6c-11.1-18.3-16.6-38.1-16.6-59.5c0-20.8,5.2-40,15.6-57.7s24.5-31.7,42.3-41.9C89.8,15.1,109.2,10,130.1,10z"/></g></g></g>
</svg>